{
    "asset" : {
        "generator" : "Khronos glTF Blender I/O v1.7.33",
        "version" : "2.0"
    },
    "scene" : 0,
    "scenes" : [
        {
            "name" : "Scene",
            "nodes" : [
                1,
                13
            ]
        }
    ],
    "nodes" : [
        {
            "name" : "Bone"
        },
        {
            "children" : [
                0
            ],
            "name" : "Armature"
        },
        {
            "name" : "Bone.004",
            "rotation" : [
                0.006297299172729254,
                -1.1275928414156473e-17,
                1.5013931209395537e-09,
                0.9999802708625793
            ],
            "scale" : [
                1,
                0.9999999403953552,
                0.9999999403953552
            ],
            "translation" : [
                8.93984661146964e-15,
                1.3117358684539795,
                -3.864988684654236e-08
            ]
        },
        {
            "children" : [
                2
            ],
            "name" : "Bone.003",
            "rotation" : [
                0.707683265209198,
                8.422491504234131e-08,
                8.436241216713825e-08,
                0.7065299153327942
            ],
            "scale" : [
                1,
                1.0000001192092896,
                1.0000001192092896
            ],
            "translation" : [
                2.365736551901659e-22,
                1.827600359916687,
                9.685754776000977e-08
            ]
        },
        {
            "children" : [
                3
            ],
            "name" : "Bone.002",
            "rotation" : [
                0.7052034735679626,
                -4.6667121831007054e-24,
                -1.5658661344526822e-16,
                0.7090050578117371
            ],
            "scale" : [
                1,
                0.9999999403953552,
                0.9999999403953552
            ],
            "translation" : [
                5.322418652888475e-23,
                2.063389778137207,
                1.281833306165936e-09
            ]
        },
        {
            "children" : [
                4
            ],
            "name" : "Bone.001",
            "rotation" : [
                -3.697785493223493e-32,
                -1.1102230246251565e-16,
                -1.1102230246251565e-16,
                1
            ],
            "translation" : [
                0,
                1,
                0
            ]
        },
        {
            "children" : [
                5
            ],
            "name" : "Bone"
        },
        {
            "mesh" : 0,
            "name" : "C0 v1",
            "skin" : 0
        },
        {
            "mesh" : 1,
            "name" : "C1 v2",
            "skin" : 0
        },
        {
            "mesh" : 2,
            "name" : "C2 v3",
            "skin" : 0
        },
        {
            "mesh" : 3,
            "name" : "c3 v1",
            "skin" : 0
        },
        {
            "mesh" : 4,
            "name" : "C4 v2",
            "skin" : 0
        },
        {
            "mesh" : 5,
            "name" : "C5 v1",
            "skin" : 0
        },
        {
            "children" : [
                7,
                8,
                9,
                10,
                11,
                12,
                6
            ],
            "name" : "Armature.001",
            "scale" : [
                76.46299743652344,
                76.46299743652344,
                76.46299743652344
            ],
            "translation" : [
                0,
                0.89111328125,
                0.724365234375
            ]
        }
    ],
    "materials" : [
        {
            "doubleSided" : true,
            "name" : "Steel_-_Satin",
            "pbrMetallicRoughness" : {
                "baseColorFactor" : [
                    0.800000011920929,
                    0.800000011920929,
                    0.800000011920929,
                    1
                ],
                "metallicFactor" : 0,
                "roughnessFactor" : 0.5
            }
        },
        {
            "doubleSided" : true,
            "name" : "Steel_-_Satin.001",
            "pbrMetallicRoughness" : {
                "baseColorFactor" : [
                    0.800000011920929,
                    0.800000011920929,
                    0.800000011920929,
                    1
                ],
                "metallicFactor" : 0,
                "roughnessFactor" : 0.5
            }
        },
        {
            "doubleSided" : true,
            "name" : "Steel_-_Satin.002",
            "pbrMetallicRoughness" : {
                "baseColorFactor" : [
                    0.800000011920929,
                    0.800000011920929,
                    0.800000011920929,
                    1
                ],
                "metallicFactor" : 0,
                "roughnessFactor" : 0.5
            }
        },
        {
            "doubleSided" : true,
            "name" : "Steel_-_Satin.003",
            "pbrMetallicRoughness" : {
                "baseColorFactor" : [
                    0.800000011920929,
                    0.800000011920929,
                    0.800000011920929,
                    1
                ],
                "metallicFactor" : 0,
                "roughnessFactor" : 0.5
            }
        },
        {
            "doubleSided" : true,
            "name" : "Steel_-_Satin.004",
            "pbrMetallicRoughness" : {
                "baseColorFactor" : [
                    0.800000011920929,
                    0.800000011920929,
                    0.800000011920929,
                    1
                ],
                "metallicFactor" : 0,
                "roughnessFactor" : 0.5
            }
        },
        {
            "doubleSided" : true,
            "name" : "Steel_-_Satin.005",
            "pbrMetallicRoughness" : {
                "baseColorFactor" : [
                    0.800000011920929,
                    0.800000011920929,
                    0.800000011920929,
                    1
                ],
                "metallicFactor" : 0,
                "roughnessFactor" : 0.5
            }
        }
    ],
    "meshes" : [
        {
            "name" : "C0 v1",
            "primitives" : [
                {
                    "attributes" : {
                        "POSITION" : 0,
                        "NORMAL" : 1,
                        "TEXCOORD_0" : 2,
                        "JOINTS_0" : 3,
                        "WEIGHTS_0" : 4
                    },
                    "indices" : 5,
                    "material" : 0
                }
            ]
        },
        {
            "name" : "C1 v2",
            "primitives" : [
                {
                    "attributes" : {
                        "POSITION" : 7,
                        "NORMAL" : 8,
                        "TEXCOORD_0" : 9,
                        "JOINTS_0" : 10,
                        "WEIGHTS_0" : 11
                    },
                    "indices" : 12,
                    "material" : 1
                }
            ]
        },
        {
            "name" : "C2 v3",
            "primitives" : [
                {
                    "attributes" : {
                        "POSITION" : 13,
                        "NORMAL" : 14,
                        "TEXCOORD_0" : 15,
                        "JOINTS_0" : 16,
                        "WEIGHTS_0" : 17
                    },
                    "indices" : 18,
                    "material" : 2
                }
            ]
        },
        {
            "name" : "c3 v1",
            "primitives" : [
                {
                    "attributes" : {
                        "POSITION" : 19,
                        "NORMAL" : 20,
                        "TEXCOORD_0" : 21,
                        "JOINTS_0" : 22,
                        "WEIGHTS_0" : 23
                    },
                    "indices" : 24,
                    "material" : 3
                }
            ]
        },
        {
            "name" : "C4 v2",
            "primitives" : [
                {
                    "attributes" : {
                        "POSITION" : 25,
                        "NORMAL" : 26,
                        "TEXCOORD_0" : 27,
                        "JOINTS_0" : 28,
                        "WEIGHTS_0" : 29
                    },
                    "indices" : 30,
                    "material" : 4
                }
            ]
        },
        {
            "name" : "C5 v1",
            "primitives" : [
                {
                    "attributes" : {
                        "POSITION" : 31,
                        "NORMAL" : 32,
                        "TEXCOORD_0" : 33,
                        "JOINTS_0" : 34,
                        "WEIGHTS_0" : 35
                    },
                    "indices" : 36,
                    "material" : 5
                }
            ]
        }
    ],
    "skins" : [
        {
            "inverseBindMatrices" : 6,
            "joints" : [
                6,
                5,
                4,
                3,
                2
            ],
            "name" : "Armature.001"
        }
    ],
    "accessors" : [
        {
            "bufferView" : 0,
            "componentType" : 5126,
            "count" : 763,
            "max" : [
                74.99978637695312,
                20.44550132751465,
                75.15225982666016
            ],
            "min" : [
                -74.99978637695312,
                0.4455578923225403,
                -74.42788696289062
            ],
            "type" : "VEC3"
        },
        {
            "bufferView" : 1,
            "componentType" : 5126,
            "count" : 763,
            "type" : "VEC3"
        },
        {
            "bufferView" : 2,
            "componentType" : 5126,
            "count" : 763,
            "type" : "VEC2"
        },
        {
            "bufferView" : 3,
            "componentType" : 5121,
            "count" : 763,
            "type" : "VEC4"
        },
        {
            "bufferView" : 4,
            "componentType" : 5126,
            "count" : 763,
            "type" : "VEC4"
        },
        {
            "bufferView" : 5,
            "componentType" : 5123,
            "count" : 2862,
            "type" : "SCALAR"
        },
        {
            "bufferView" : 6,
            "componentType" : 5126,
            "count" : 5,
            "type" : "MAT4"
        },
        {
            "bufferView" : 7,
            "componentType" : 5126,
            "count" : 2117,
            "max" : [
                74.99978637695312,
                115.44523620605469,
                71.56388854980469
            ],
            "min" : [
                -54.999847412109375,
                20.44550323486328,
                -70.83952331542969
            ],
            "type" : "VEC3"
        },
        {
            "bufferView" : 8,
            "componentType" : 5126,
            "count" : 2117,
            "type" : "VEC3"
        },
        {
            "bufferView" : 9,
            "componentType" : 5126,
            "count" : 2117,
            "type" : "VEC2"
        },
        {
            "bufferView" : 10,
            "componentType" : 5121,
            "count" : 2117,
            "type" : "VEC4"
        },
        {
            "bufferView" : 11,
            "componentType" : 5126,
            "count" : 2117,
            "type" : "VEC4"
        },
        {
            "bufferView" : 12,
            "componentType" : 5123,
            "count" : 7794,
            "type" : "SCALAR"
        },
        {
            "bufferView" : 13,
            "componentType" : 5126,
            "count" : 1338,
            "max" : [
                34.999900817871094,
                270.190185546875,
                40.276885986328125
            ],
            "min" : [
                -34.999900817871094,
                35.5306396484375,
                -39.55251693725586
            ],
            "type" : "VEC3"
        },
        {
            "bufferView" : 14,
            "componentType" : 5126,
            "count" : 1338,
            "type" : "VEC3"
        },
        {
            "bufferView" : 15,
            "componentType" : 5126,
            "count" : 1338,
            "type" : "VEC2"
        },
        {
            "bufferView" : 16,
            "componentType" : 5121,
            "count" : 1338,
            "type" : "VEC4"
        },
        {
            "bufferView" : 17,
            "componentType" : 5126,
            "count" : 1338,
            "type" : "VEC4"
        },
        {
            "bufferView" : 18,
            "componentType" : 5123,
            "count" : 5424,
            "type" : "SCALAR"
        },
        {
            "bufferView" : 19,
            "componentType" : 5126,
            "count" : 1644,
            "max" : [
                24.999929428100586,
                270.4447937011719,
                170.36170959472656
            ],
            "min" : [
                -24.999929428100586,
                200.4449920654297,
                -34.637718200683594
            ],
            "type" : "VEC3"
        },
        {
            "bufferView" : 20,
            "componentType" : 5126,
            "count" : 1644,
            "type" : "VEC3"
        },
        {
            "bufferView" : 21,
            "componentType" : 5126,
            "count" : 1644,
            "type" : "VEC2"
        },
        {
            "bufferView" : 22,
            "componentType" : 5121,
            "count" : 1644,
            "type" : "VEC4"
        },
        {
            "bufferView" : 23,
            "componentType" : 5126,
            "count" : 1644,
            "type" : "VEC4"
        },
        {
            "bufferView" : 24,
            "componentType" : 5123,
            "count" : 6816,
            "type" : "SCALAR"
        },
        {
            "bufferView" : 25,
            "componentType" : 5126,
            "count" : 342,
            "max" : [
                12.499964714050293,
                265.44482421875,
                170.3514404296875
            ],
            "min" : [
                -12.499964714050293,
                135.44517517089844,
                110.37212371826172
            ],
            "type" : "VEC3"
        },
        {
            "bufferView" : 26,
            "componentType" : 5126,
            "count" : 342,
            "type" : "VEC3"
        },
        {
            "bufferView" : 27,
            "componentType" : 5126,
            "count" : 342,
            "type" : "VEC2"
        },
        {
            "bufferView" : 28,
            "componentType" : 5121,
            "count" : 342,
            "type" : "VEC4"
        },
        {
            "bufferView" : 29,
            "componentType" : 5126,
            "count" : 342,
            "type" : "VEC4"
        },
        {
            "bufferView" : 30,
            "componentType" : 5123,
            "count" : 960,
            "type" : "SCALAR"
        },
        {
            "bufferView" : 31,
            "componentType" : 5126,
            "count" : 622,
            "max" : [
                9.999972343444824,
                145.4451446533203,
                150.30697631835938
            ],
            "min" : [
                -9.999972343444824,
                96.44528198242188,
                130.41659545898438
            ],
            "type" : "VEC3"
        },
        {
            "bufferView" : 32,
            "componentType" : 5126,
            "count" : 622,
            "type" : "VEC3"
        },
        {
            "bufferView" : 33,
            "componentType" : 5126,
            "count" : 622,
            "type" : "VEC2"
        },
        {
            "bufferView" : 34,
            "componentType" : 5121,
            "count" : 622,
            "type" : "VEC4"
        },
        {
            "bufferView" : 35,
            "componentType" : 5126,
            "count" : 622,
            "type" : "VEC4"
        },
        {
            "bufferView" : 36,
            "componentType" : 5123,
            "count" : 2112,
            "type" : "SCALAR"
        }
    ],
    "bufferViews" : [
        {
            "buffer" : 0,
            "byteLength" : 9156,
            "byteOffset" : 0
        },
        {
            "buffer" : 0,
            "byteLength" : 9156,
            "byteOffset" : 9156
        },
        {
            "buffer" : 0,
            "byteLength" : 6104,
            "byteOffset" : 18312
        },
        {
            "buffer" : 0,
            "byteLength" : 3052,
            "byteOffset" : 24416
        },
        {
            "buffer" : 0,
            "byteLength" : 12208,
            "byteOffset" : 27468
        },
        {
            "buffer" : 0,
            "byteLength" : 5724,
            "byteOffset" : 39676
        },
        {
            "buffer" : 0,
            "byteLength" : 320,
            "byteOffset" : 45400
        },
        {
            "buffer" : 0,
            "byteLength" : 25404,
            "byteOffset" : 45720
        },
        {
            "buffer" : 0,
            "byteLength" : 25404,
            "byteOffset" : 71124
        },
        {
            "buffer" : 0,
            "byteLength" : 16936,
            "byteOffset" : 96528
        },
        {
            "buffer" : 0,
            "byteLength" : 8468,
            "byteOffset" : 113464
        },
        {
            "buffer" : 0,
            "byteLength" : 33872,
            "byteOffset" : 121932
        },
        {
            "buffer" : 0,
            "byteLength" : 15588,
            "byteOffset" : 155804
        },
        {
            "buffer" : 0,
            "byteLength" : 16056,
            "byteOffset" : 171392
        },
        {
            "buffer" : 0,
            "byteLength" : 16056,
            "byteOffset" : 187448
        },
        {
            "buffer" : 0,
            "byteLength" : 10704,
            "byteOffset" : 203504
        },
        {
            "buffer" : 0,
            "byteLength" : 5352,
            "byteOffset" : 214208
        },
        {
            "buffer" : 0,
            "byteLength" : 21408,
            "byteOffset" : 219560
        },
        {
            "buffer" : 0,
            "byteLength" : 10848,
            "byteOffset" : 240968
        },
        {
            "buffer" : 0,
            "byteLength" : 19728,
            "byteOffset" : 251816
        },
        {
            "buffer" : 0,
            "byteLength" : 19728,
            "byteOffset" : 271544
        },
        {
            "buffer" : 0,
            "byteLength" : 13152,
            "byteOffset" : 291272
        },
        {
            "buffer" : 0,
            "byteLength" : 6576,
            "byteOffset" : 304424
        },
        {
            "buffer" : 0,
            "byteLength" : 26304,
            "byteOffset" : 311000
        },
        {
            "buffer" : 0,
            "byteLength" : 13632,
            "byteOffset" : 337304
        },
        {
            "buffer" : 0,
            "byteLength" : 4104,
            "byteOffset" : 350936
        },
        {
            "buffer" : 0,
            "byteLength" : 4104,
            "byteOffset" : 355040
        },
        {
            "buffer" : 0,
            "byteLength" : 2736,
            "byteOffset" : 359144
        },
        {
            "buffer" : 0,
            "byteLength" : 1368,
            "byteOffset" : 361880
        },
        {
            "buffer" : 0,
            "byteLength" : 5472,
            "byteOffset" : 363248
        },
        {
            "buffer" : 0,
            "byteLength" : 1920,
            "byteOffset" : 368720
        },
        {
            "buffer" : 0,
            "byteLength" : 7464,
            "byteOffset" : 370640
        },
        {
            "buffer" : 0,
            "byteLength" : 7464,
            "byteOffset" : 378104
        },
        {
            "buffer" : 0,
            "byteLength" : 4976,
            "byteOffset" : 385568
        },
        {
            "buffer" : 0,
            "byteLength" : 2488,
            "byteOffset" : 390544
        },
        {
            "buffer" : 0,
            "byteLength" : 9952,
            "byteOffset" : 393032
        },
        {
            "buffer" : 0,
            "byteLength" : 4224,
            "byteOffset" : 402984
        }
    ],
    "buffers" : [
        {
            "byteLength" : 407208,
            "uri" : "data:application/octet-stream;base64,"
        }
    ]
}
