{
    "asset" : {
        "generator" : "Khronos glTF Blender I/O v1.7.33",
        "version" : "2.0"
    },
    "scene" : 0,
    "scenes" : [
        {
            "name" : "Scene",
            "nodes" : [
                11
            ]
        }
    ],
    "nodes" : [
        {
            "mesh" : 0,
            "name" : "C0-v1",
            "scale" : [
                0.0066535924561321735,
                0.0066535924561321735,
                0.0066535924561321735
            ]
        },
        {
            "name" : "Bone.004",
            "rotation" : [
                0.00893368013203144,
                -0.4490357041358948,
                -0.0044899084605276585,
                0.8934578895568848
            ],
            "scale" : [
                1.0000001192092896,
                1.0000001192092896,
                1.0000001192092896
            ],
            "translation" : [
                7.45057571194252e-09,
                1.3591561317443848,
                2.3837332108200826e-09
            ]
        },
        {
            "children" : [
                1
            ],
            "name" : "Bone.003",
            "rotation" : [
                0.7071068286895752,
                -5.3714334313781364e-08,
                -1.1487303908097601e-07,
                0.7071067094802856
            ],
            "translation" : [
                7.450581485102248e-09,
                1.8614528179168701,
                -2.3754718370128103e-07
            ]
        },
        {
            "children" : [
                2
            ],
            "name" : "Bone.002",
            "rotation" : [
                0.5263568162918091,
                -0.008282791823148727,
                -0.008244697004556656,
                0.8501834869384766
            ],
            "scale" : [
                0.9999999403953552,
                0.9999999403953552,
                1
            ],
            "translation" : [
                -2.842170943040401e-14,
                2.137246608734131,
                -1.1450121979500302e-23
            ]
        },
        {
            "children" : [
                3
            ],
            "name" : "Bone.001",
            "rotation" : [
                0.022918421775102615,
                -1.1354816794611778e-16,
                -1.0896020736986996e-16,
                0.9997374415397644
            ],
            "translation" : [
                0,
                1,
                0
            ]
        },
        {
            "children" : [
                4
            ],
            "name" : "Bone"
        },
        {
            "mesh" : 1,
            "name" : "C1-v2",
            "skin" : 0
        },
        {
            "mesh" : 2,
            "name" : "C2-v3",
            "skin" : 0
        },
        {
            "mesh" : 3,
            "name" : "c3-v1",
            "skin" : 0
        },
        {
            "mesh" : 4,
            "name" : "C4-v2",
            "skin" : 0
        },
        {
            "mesh" : 5,
            "name" : "C5-v1",
            "skin" : 0
        },
        {
            "children" : [
                0,
                6,
                7,
                8,
                9,
                10,
                5
            ],
            "name" : "Armature",
            "scale" : [
                150.2947540283203,
                150.2947540283203,
                150.2947540283203
            ]
        }
    ],
    "materials" : [
        {
            "doubleSided" : true,
            "name" : "Steel_-_Satin",
            "pbrMetallicRoughness" : {
                "baseColorFactor" : [
                    0.800000011920929,
                    0.800000011920929,
                    0.800000011920929,
                    1
                ],
                "metallicFactor" : 0,
                "roughnessFactor" : 0.5
            }
        },
        {
            "doubleSided" : true,
            "name" : "Steel_-_Satin.001",
            "pbrMetallicRoughness" : {
                "baseColorFactor" : [
                    0.800000011920929,
                    0.800000011920929,
                    0.800000011920929,
                    1
                ],
                "metallicFactor" : 0,
                "roughnessFactor" : 0.5
            }
        },
        {
            "doubleSided" : true,
            "name" : "Steel_-_Satin.002",
            "pbrMetallicRoughness" : {
                "baseColorFactor" : [
                    0.800000011920929,
                    0.800000011920929,
                    0.800000011920929,
                    1
                ],
                "metallicFactor" : 0,
                "roughnessFactor" : 0.5
            }
        },
        {
            "doubleSided" : true,
            "name" : "Steel_-_Satin.003",
            "pbrMetallicRoughness" : {
                "baseColorFactor" : [
                    0.800000011920929,
                    0.800000011920929,
                    0.800000011920929,
                    1
                ],
                "metallicFactor" : 0,
                "roughnessFactor" : 0.5
            }
        },
        {
            "doubleSided" : true,
            "name" : "Steel_-_Satin.004",
            "pbrMetallicRoughness" : {
                "baseColorFactor" : [
                    0.800000011920929,
                    0.800000011920929,
                    0.800000011920929,
                    1
                ],
                "metallicFactor" : 0,
                "roughnessFactor" : 0.5
            }
        },
        {
            "doubleSided" : true,
            "name" : "Steel_-_Satin.005",
            "pbrMetallicRoughness" : {
                "baseColorFactor" : [
                    0.800000011920929,
                    0.800000011920929,
                    0.800000011920929,
                    1
                ],
                "metallicFactor" : 0,
                "roughnessFactor" : 0.5
            }
        }
    ],
    "meshes" : [
        {
            "name" : "C0-v1",
            "primitives" : [
                {
                    "attributes" : {
                        "POSITION" : 0,
                        "NORMAL" : 1,
                        "TEXCOORD_0" : 2,
                        "JOINTS_0" : 3,
                        "WEIGHTS_0" : 4
                    },
                    "indices" : 5,
                    "material" : 0
                }
            ]
        },
        {
            "name" : "C1-v2",
            "primitives" : [
                {
                    "attributes" : {
                        "POSITION" : 6,
                        "NORMAL" : 7,
                        "TEXCOORD_0" : 8,
                        "JOINTS_0" : 9,
                        "WEIGHTS_0" : 10
                    },
                    "indices" : 11,
                    "material" : 1
                }
            ]
        },
        {
            "name" : "C2-v3",
            "primitives" : [
                {
                    "attributes" : {
                        "POSITION" : 13,
                        "NORMAL" : 14,
                        "TEXCOORD_0" : 15,
                        "JOINTS_0" : 16,
                        "WEIGHTS_0" : 17
                    },
                    "indices" : 18,
                    "material" : 2
                }
            ]
        },
        {
            "name" : "c3-v1",
            "primitives" : [
                {
                    "attributes" : {
                        "POSITION" : 19,
                        "NORMAL" : 20,
                        "TEXCOORD_0" : 21,
                        "JOINTS_0" : 22,
                        "WEIGHTS_0" : 23
                    },
                    "indices" : 24,
                    "material" : 3
                }
            ]
        },
        {
            "name" : "C4-v2",
            "primitives" : [
                {
                    "attributes" : {
                        "POSITION" : 25,
                        "NORMAL" : 26,
                        "TEXCOORD_0" : 27,
                        "JOINTS_0" : 28,
                        "WEIGHTS_0" : 29
                    },
                    "indices" : 30,
                    "material" : 4
                }
            ]
        },
        {
            "name" : "C5-v1",
            "primitives" : [
                {
                    "attributes" : {
                        "POSITION" : 31,
                        "NORMAL" : 32,
                        "TEXCOORD_0" : 33,
                        "JOINTS_0" : 34,
                        "WEIGHTS_0" : 35
                    },
                    "indices" : 36,
                    "material" : 5
                }
            ]
        }
    ],
    "skins" : [
        {
            "inverseBindMatrices" : 12,
            "joints" : [
                5,
                4,
                3,
                2,
                1
            ],
            "name" : "Armature"
        }
    ],
    "accessors" : [
        {
            "bufferView" : 0,
            "componentType" : 5126,
            "count" : 763,
            "max" : [
                150,
                40,
                149.58056640625
            ],
            "min" : [
                -150,
                0,
                -149.58056640625
            ],
            "type" : "VEC3"
        },
        {
            "bufferView" : 1,
            "componentType" : 5126,
            "count" : 763,
            "type" : "VEC3"
        },
        {
            "bufferView" : 2,
            "componentType" : 5126,
            "count" : 763,
            "type" : "VEC2"
        },
        {
            "bufferView" : 3,
            "componentType" : 5121,
            "count" : 763,
            "type" : "VEC4"
        },
        {
            "bufferView" : 4,
            "componentType" : 5126,
            "count" : 763,
            "type" : "VEC4"
        },
        {
            "bufferView" : 5,
            "componentType" : 5123,
            "count" : 2862,
            "type" : "SCALAR"
        },
        {
            "bufferView" : 6,
            "componentType" : 5126,
            "count" : 2117,
            "max" : [
                150,
                230,
                142.40380859375
            ],
            "min" : [
                -110,
                40,
                -142.40380859375
            ],
            "type" : "VEC3"
        },
        {
            "bufferView" : 7,
            "componentType" : 5126,
            "count" : 2117,
            "type" : "VEC3"
        },
        {
            "bufferView" : 8,
            "componentType" : 5126,
            "count" : 2117,
            "type" : "VEC2"
        },
        {
            "bufferView" : 9,
            "componentType" : 5121,
            "count" : 2117,
            "type" : "VEC4"
        },
        {
            "bufferView" : 10,
            "componentType" : 5126,
            "count" : 2117,
            "type" : "VEC4"
        },
        {
            "bufferView" : 11,
            "componentType" : 5123,
            "count" : 7794,
            "type" : "SCALAR"
        },
        {
            "bufferView" : 12,
            "componentType" : 5126,
            "count" : 5,
            "type" : "MAT4"
        },
        {
            "bufferView" : 13,
            "componentType" : 5126,
            "count" : 1338,
            "max" : [
                70,
                539.4907836914062,
                79.82962799072266
            ],
            "min" : [
                -70,
                70.17037200927734,
                -79.82962799072266
            ],
            "type" : "VEC3"
        },
        {
            "bufferView" : 14,
            "componentType" : 5126,
            "count" : 1338,
            "type" : "VEC3"
        },
        {
            "bufferView" : 15,
            "componentType" : 5126,
            "count" : 1338,
            "type" : "VEC2"
        },
        {
            "bufferView" : 16,
            "componentType" : 5121,
            "count" : 1338,
            "type" : "VEC4"
        },
        {
            "bufferView" : 17,
            "componentType" : 5126,
            "count" : 1338,
            "type" : "VEC4"
        },
        {
            "bufferView" : 18,
            "componentType" : 5123,
            "count" : 5424,
            "type" : "SCALAR"
        },
        {
            "bufferView" : 19,
            "componentType" : 5126,
            "count" : 1644,
            "max" : [
                50,
                540,
                340
            ],
            "min" : [
                -50,
                400,
                -70
            ],
            "type" : "VEC3"
        },
        {
            "bufferView" : 20,
            "componentType" : 5126,
            "count" : 1644,
            "type" : "VEC3"
        },
        {
            "bufferView" : 21,
            "componentType" : 5126,
            "count" : 1644,
            "type" : "VEC2"
        },
        {
            "bufferView" : 22,
            "componentType" : 5121,
            "count" : 1644,
            "type" : "VEC4"
        },
        {
            "bufferView" : 23,
            "componentType" : 5126,
            "count" : 1644,
            "type" : "VEC4"
        },
        {
            "bufferView" : 24,
            "componentType" : 5123,
            "count" : 6816,
            "type" : "SCALAR"
        },
        {
            "bufferView" : 25,
            "componentType" : 5126,
            "count" : 342,
            "max" : [
                25,
                530,
                339.9794921875
            ],
            "min" : [
                -25,
                270,
                220.0205078125
            ],
            "type" : "VEC3"
        },
        {
            "bufferView" : 26,
            "componentType" : 5126,
            "count" : 342,
            "type" : "VEC3"
        },
        {
            "bufferView" : 27,
            "componentType" : 5126,
            "count" : 342,
            "type" : "VEC2"
        },
        {
            "bufferView" : 28,
            "componentType" : 5121,
            "count" : 342,
            "type" : "VEC4"
        },
        {
            "bufferView" : 29,
            "componentType" : 5126,
            "count" : 342,
            "type" : "VEC4"
        },
        {
            "bufferView" : 30,
            "componentType" : 5123,
            "count" : 960,
            "type" : "SCALAR"
        },
        {
            "bufferView" : 31,
            "componentType" : 5126,
            "count" : 622,
            "max" : [
                20,
                290,
                299.89044189453125
            ],
            "min" : [
                -20,
                192,
                260.10955810546875
            ],
            "type" : "VEC3"
        },
        {
            "bufferView" : 32,
            "componentType" : 5126,
            "count" : 622,
            "type" : "VEC3"
        },
        {
            "bufferView" : 33,
            "componentType" : 5126,
            "count" : 622,
            "type" : "VEC2"
        },
        {
            "bufferView" : 34,
            "componentType" : 5121,
            "count" : 622,
            "type" : "VEC4"
        },
        {
            "bufferView" : 35,
            "componentType" : 5126,
            "count" : 622,
            "type" : "VEC4"
        },
        {
            "bufferView" : 36,
            "componentType" : 5123,
            "count" : 2112,
            "type" : "SCALAR"
        }
    ],
    "bufferViews" : [
        {
            "buffer" : 0,
            "byteLength" : 9156,
            "byteOffset" : 0
        },
        {
            "buffer" : 0,
            "byteLength" : 9156,
            "byteOffset" : 9156
        },
        {
            "buffer" : 0,
            "byteLength" : 6104,
            "byteOffset" : 18312
        },
        {
            "buffer" : 0,
            "byteLength" : 3052,
            "byteOffset" : 24416
        },
        {
            "buffer" : 0,
            "byteLength" : 12208,
            "byteOffset" : 27468
        },
        {
            "buffer" : 0,
            "byteLength" : 5724,
            "byteOffset" : 39676
        },
        {
            "buffer" : 0,
            "byteLength" : 25404,
            "byteOffset" : 45400
        },
        {
            "buffer" : 0,
            "byteLength" : 25404,
            "byteOffset" : 70804
        },
        {
            "buffer" : 0,
            "byteLength" : 16936,
            "byteOffset" : 96208
        },
        {
            "buffer" : 0,
            "byteLength" : 8468,
            "byteOffset" : 113144
        },
        {
            "buffer" : 0,
            "byteLength" : 33872,
            "byteOffset" : 121612
        },
        {
            "buffer" : 0,
            "byteLength" : 15588,
            "byteOffset" : 155484
        },
        {
            "buffer" : 0,
            "byteLength" : 320,
            "byteOffset" : 171072
        },
        {
            "buffer" : 0,
            "byteLength" : 16056,
            "byteOffset" : 171392
        },
        {
            "buffer" : 0,
            "byteLength" : 16056,
            "byteOffset" : 187448
        },
        {
            "buffer" : 0,
            "byteLength" : 10704,
            "byteOffset" : 203504
        },
        {
            "buffer" : 0,
            "byteLength" : 5352,
            "byteOffset" : 214208
        },
        {
            "buffer" : 0,
            "byteLength" : 21408,
            "byteOffset" : 219560
        },
        {
            "buffer" : 0,
            "byteLength" : 10848,
            "byteOffset" : 240968
        },
        {
            "buffer" : 0,
            "byteLength" : 19728,
            "byteOffset" : 251816
        },
        {
            "buffer" : 0,
            "byteLength" : 19728,
            "byteOffset" : 271544
        },
        {
            "buffer" : 0,
            "byteLength" : 13152,
            "byteOffset" : 291272
        },
        {
            "buffer" : 0,
            "byteLength" : 6576,
            "byteOffset" : 304424
        },
        {
            "buffer" : 0,
            "byteLength" : 26304,
            "byteOffset" : 311000
        },
        {
            "buffer" : 0,
            "byteLength" : 13632,
            "byteOffset" : 337304
        },
        {
            "buffer" : 0,
            "byteLength" : 4104,
            "byteOffset" : 350936
        },
        {
            "buffer" : 0,
            "byteLength" : 4104,
            "byteOffset" : 355040
        },
        {
            "buffer" : 0,
            "byteLength" : 2736,
            "byteOffset" : 359144
        },
        {
            "buffer" : 0,
            "byteLength" : 1368,
            "byteOffset" : 361880
        },
        {
            "buffer" : 0,
            "byteLength" : 5472,
            "byteOffset" : 363248
        },
        {
            "buffer" : 0,
            "byteLength" : 1920,
            "byteOffset" : 368720
        },
        {
            "buffer" : 0,
            "byteLength" : 7464,
            "byteOffset" : 370640
        },
        {
            "buffer" : 0,
            "byteLength" : 7464,
            "byteOffset" : 378104
        },
        {
            "buffer" : 0,
            "byteLength" : 4976,
            "byteOffset" : 385568
        },
        {
            "buffer" : 0,
            "byteLength" : 2488,
            "byteOffset" : 390544
        },
        {
            "buffer" : 0,
            "byteLength" : 9952,
            "byteOffset" : 393032
        },
        {
            "buffer" : 0,
            "byteLength" : 4224,
            "byteOffset" : 402984
        }
    ],
    "buffers" : [
        {
            "byteLength" : 407208,
            "uri" : "data:application/octet-stream;base64,"
        }
    ]
}
